<svg width="35" height="35" viewBox="0 0 35 35" fill="none" xmlns="http://www.w3.org/2000/svg">
<path d="M23.275 17.5011L34.1027 6.6734C35.2991 5.47704 35.2991 3.53746 34.1027 2.34298L32.6593 0.899507C31.4625 -0.297218 29.523 -0.297218 28.3285 0.899507L17.5011 11.7269L6.6734 0.897263C5.47704 -0.299088 3.53746 -0.299088 2.34298 0.897263L0.897263 2.34074C-0.299088 3.53746 -0.299088 5.47704 0.897263 6.67153L11.7269 17.5011L0.899507 28.3285C-0.297218 29.5252 -0.297218 31.4648 0.899507 32.6593L2.34298 34.1027C3.53933 35.2991 5.47891 35.2991 6.6734 34.1027L17.5011 23.275L28.3285 34.1027C29.5252 35.2991 31.4648 35.2991 32.6593 34.1027L34.1027 32.6593C35.2991 31.4625 35.2991 29.523 34.1027 28.3285L23.275 17.5011Z" fill="#333333"/>
</svg>
