<svg width="69" height="40" viewBox="0 0 69 40" fill="none" xmlns="http://www.w3.org/2000/svg">
<path d="M14.6935 23.7838C13.079 23.7838 11.5007 24.2593 10.1583 25.1503C8.81583 26.0412 7.76953 27.3075 7.15167 28.7891C6.53381 30.2706 6.37215 31.9009 6.68713 33.4737C7.00211 35.0465 7.77959 36.4913 8.92124 37.6252C10.0629 38.7591 11.5174 39.5314 13.101 39.8442C14.6845 40.1571 16.3258 39.9965 17.8175 39.3828C19.3091 38.7691 20.5841 37.7299 21.481 36.3965C22.378 35.0631 22.8568 33.4955 22.8568 31.8919C22.8544 29.7422 21.9935 27.6813 20.4631 26.1613C18.9328 24.6413 16.8578 23.7862 14.6935 23.7838V23.7838ZM14.6935 36.2162C13.8325 36.2162 12.9907 35.9626 12.2747 35.4874C11.5588 35.0123 11.0007 34.3369 10.6712 33.5467C10.3417 32.7566 10.2555 31.8871 10.4235 31.0483C10.5914 30.2094 11.0061 29.4389 11.615 28.8341C12.2239 28.2294 12.9996 27.8175 13.8442 27.6507C14.6887 27.4838 15.5641 27.5694 16.3596 27.8967C17.1552 28.224 17.8352 28.7783 18.3135 29.4894C18.7919 30.2006 19.0473 31.0366 19.0473 31.8919C19.0473 33.0388 18.5886 34.1387 17.7721 34.9497C16.9556 35.7606 15.8482 36.2162 14.6935 36.2162Z" fill="#333333"/>
<path d="M56.0539 23.7838C54.4394 23.7838 52.8611 24.2593 51.5186 25.1503C50.1762 26.0412 49.1299 27.3075 48.512 28.7891C47.8942 30.2706 47.7325 31.9009 48.0475 33.4737C48.3625 35.0465 49.1399 36.4913 50.2816 37.6252C51.4232 38.7591 52.8778 39.5314 54.4613 39.8442C56.0448 40.1571 57.6862 39.9965 59.1778 39.3828C60.6695 38.7691 61.9444 37.7299 62.8414 36.3965C63.7384 35.0631 64.2172 33.4955 64.2172 31.8919C64.2147 29.7422 63.3539 27.6813 61.8235 26.1613C60.2931 24.6413 58.2182 23.7862 56.0539 23.7838V23.7838ZM56.0539 36.2162C55.1928 36.2162 54.3511 35.9626 53.6351 35.4874C52.9191 35.0123 52.3611 34.3369 52.0316 33.5467C51.702 32.7566 51.6158 31.8871 51.7838 31.0483C51.9518 30.2094 52.3665 29.4389 52.9753 28.8341C53.5842 28.2294 54.36 27.8175 55.2045 27.6507C56.0491 27.4838 56.9245 27.5694 57.72 27.8967C58.5155 28.224 59.1955 28.7783 59.6739 29.4894C60.1523 30.2006 60.4076 31.0366 60.4076 31.8919C60.4076 33.0388 59.9489 34.1387 59.1325 34.9497C58.316 35.7606 57.2086 36.2162 56.0539 36.2162Z" fill="#333333"/>
<path d="M67.5624 18.4612C62.1597 16.2475 53.8775 12.4325 53.8775 12.4325L47.2812 1.79733C46.8229 1.23484 46.2436 0.781442 45.5858 0.470429C44.928 0.159416 44.2084 -0.0013166 43.4799 3.37156e-05H10.854C9.74148 -0.00369697 8.65016 0.302247 7.70377 0.883177C6.75738 1.46411 5.9938 2.29678 5.49959 3.28679L0.631973 12.9565C0.216352 13.7821 -1.89592e-05 14.6924 1.24601e-09 15.6154V28.6487C1.24601e-09 29.9389 0.516034 31.1763 1.43458 32.0886C2.35312 33.001 3.59894 33.5135 4.89796 33.5135H5.0366C4.79763 32.1178 4.86822 30.6871 5.24343 29.3212C5.61864 27.9554 6.28943 26.6873 7.20898 25.6055C8.12853 24.5238 9.2747 23.6544 10.5675 23.058C11.8602 22.4616 13.2685 22.1526 14.6939 22.1526C16.1193 22.1526 17.5275 22.4616 18.8203 23.058C20.1131 23.6544 21.2592 24.5238 22.1788 25.6055C23.0983 26.6873 23.7691 27.9554 24.1443 29.3212C24.5195 30.6871 24.5901 32.1178 24.3512 33.5135H46.3971C46.1603 32.137 46.2245 30.726 46.5855 29.3764C46.9464 28.0268 47.5956 26.7701 48.4889 25.6918C49.3822 24.6135 50.4987 23.7387 51.7626 23.1271C53.0265 22.5154 54.4082 22.1811 55.8137 22.1469C57.2192 22.1127 58.6157 22.3793 59.9082 22.9288C61.2008 23.4782 62.3591 24.2975 63.3045 25.3311C64.25 26.3646 64.9604 27.5882 65.3874 28.9186C65.8145 30.2491 65.9482 31.6553 65.7796 33.0416C66.6153 32.6463 67.3212 32.0238 67.8153 31.2463C68.3094 30.4688 68.5716 29.5681 68.5714 28.6487V19.9595C68.5715 19.6386 68.4757 19.3249 68.2961 19.0581C68.1164 18.7914 67.8611 18.5837 67.5624 18.4612V18.4612ZM7.67347 11.2493C7.49166 11.6053 7.21411 11.9043 6.87162 12.1132C6.52912 12.322 6.13508 12.4325 5.7332 12.4325H3.61687C3.61687 12.4325 7.07265 5.63003 8.37184 3.16692C8.51005 2.90465 8.71791 2.68497 8.97288 2.53168C9.22784 2.37839 9.52019 2.29734 9.81823 2.29733H11.1551C11.2711 2.29728 11.3853 2.32671 11.4866 2.38283C11.588 2.43895 11.6732 2.5199 11.7342 2.61796C11.7952 2.71603 11.8299 2.82796 11.835 2.94311C11.8402 3.05826 11.8155 3.1728 11.7635 3.27584L11.7581 3.28679C11.7581 3.28679 8.9366 8.77638 7.67347 11.2493ZM14.6939 18.3784H12.517C12.084 18.3784 11.6687 18.2075 11.3625 17.9034C11.0564 17.5993 10.8844 17.1869 10.8844 16.7568C10.8844 16.3267 11.0564 15.9142 11.3625 15.6101C11.6687 15.306 12.084 15.1352 12.517 15.1352H14.6939C15.1269 15.1352 15.5422 15.306 15.8483 15.6101C16.1545 15.9142 16.3265 16.3267 16.3265 16.7568C16.3265 17.1869 16.1545 17.5993 15.8483 17.9034C15.5422 18.2075 15.1269 18.3784 14.6939 18.3784V18.3784ZM29.3878 10.8108C29.3878 11.2408 29.2159 11.6531 28.9098 11.9572C28.6038 12.2613 28.1888 12.4322 27.7559 12.4325H13.1429C12.8631 12.4324 12.588 12.3609 12.3441 12.2248C12.1001 12.0888 11.8955 11.8928 11.7497 11.6556C11.604 11.4184 11.522 11.148 11.5118 10.8703C11.5015 10.5926 11.5633 10.3169 11.6912 10.0698C12.8366 7.85814 14.4955 4.67381 15.3094 3.15706C15.4485 2.89752 15.656 2.68042 15.9097 2.52899C16.1634 2.37755 16.4538 2.29748 16.7498 2.29733H27.7551C28.1881 2.29733 28.6034 2.46818 28.9096 2.77229C29.2157 3.0764 29.3878 3.48887 29.3878 3.91895V10.8108ZM38.6395 18.3784H36.5986C36.1656 18.3784 35.7504 18.2075 35.4442 17.9034C35.138 17.5993 34.966 17.1869 34.966 16.7568C34.966 16.3267 35.138 15.9142 35.4442 15.6101C35.7504 15.306 36.1656 15.1352 36.5986 15.1352H38.6395C39.0725 15.1352 39.4877 15.306 39.7939 15.6101C40.1001 15.9142 40.2721 16.3267 40.2721 16.7568C40.2721 17.1869 40.1001 17.5993 39.7939 17.9034C39.4877 18.2075 39.0725 18.3784 38.6395 18.3784ZM35.9184 12.4325C35.4854 12.4325 35.0701 12.2616 34.7639 11.9575C34.4577 11.6534 34.2857 11.2409 34.2857 10.8108V3.91895C34.2857 3.48887 34.4577 3.0764 34.7639 2.77229C35.0701 2.46818 35.4854 2.29733 35.9184 2.29733H44.8707L51.1565 12.4325H35.9184Z" fill="#333333"/>
</svg>
