<svg width="80" height="80" viewBox="0 0 80 80" fill="none" xmlns="http://www.w3.org/2000/svg">
<path d="M63.75 44.375C62.143 44.375 60.5722 44.8515 59.236 45.7443C57.8998 46.6371 56.8584 47.9061 56.2435 49.3907C55.6285 50.8754 55.4676 52.509 55.7811 54.0851C56.0946 55.6612 56.8685 57.109 58.0048 58.2453C59.1411 59.3816 60.5888 60.1554 62.1649 60.4689C63.741 60.7824 65.3747 60.6215 66.8593 60.0065C68.344 59.3916 69.6129 58.3502 70.5057 57.014C71.3985 55.6779 71.875 54.107 71.875 52.5C71.8726 50.3459 71.0158 48.2807 69.4926 46.7575C67.9694 45.2342 65.9042 44.3774 63.75 44.375V44.375ZM63.75 56.875C62.8847 56.875 62.0389 56.6184 61.3194 56.1377C60.5999 55.657 60.0392 54.9737 59.708 54.1743C59.3769 53.3748 59.2903 52.4952 59.4591 51.6465C59.6279 50.7978 60.0446 50.0183 60.6564 49.4064C61.2683 48.7946 62.0478 48.3779 62.8965 48.2091C63.7452 48.0403 64.6248 48.1269 65.4243 48.458C66.2237 48.7892 66.907 49.3499 67.3877 50.0694C67.8684 50.7889 68.125 51.6347 68.125 52.5C68.1237 53.6599 67.6623 54.772 66.8422 55.5922C66.022 56.4123 64.9099 56.8737 63.75 56.875V56.875Z" fill="#333333"/>
<path d="M18.75 44.375C17.143 44.375 15.5721 44.8515 14.236 45.7443C12.8998 46.6371 11.8584 47.9061 11.2435 49.3907C10.6285 50.8754 10.4676 52.509 10.7811 54.0851C11.0946 55.6612 11.8685 57.109 13.0048 58.2453C14.1411 59.3816 15.5888 60.1554 17.1649 60.4689C18.741 60.7824 20.3746 60.6215 21.8593 60.0065C23.3439 59.3916 24.6129 58.3502 25.5057 57.014C26.3985 55.6779 26.875 54.107 26.875 52.5C26.8725 50.3459 26.0157 48.2807 24.4925 46.7575C22.9693 45.2342 20.9041 44.3774 18.75 44.375V44.375ZM18.75 56.875C17.8847 56.875 17.0388 56.6184 16.3194 56.1377C15.5999 55.657 15.0392 54.9737 14.708 54.1743C14.3769 53.3748 14.2903 52.4952 14.4591 51.6465C14.6279 50.7978 15.0446 50.0183 15.6564 49.4064C16.2683 48.7946 17.0478 48.3779 17.8965 48.2091C18.7451 48.0403 19.6248 48.1269 20.4242 48.458C21.2237 48.7892 21.9069 49.3499 22.3877 50.0694C22.8684 50.7889 23.125 51.6347 23.125 52.5C23.1237 53.6599 22.6623 54.772 21.8421 55.5922C21.0219 56.4123 19.9099 56.8737 18.75 56.875V56.875Z" fill="#333333"/>
<path d="M77.827 38.1538L63.4019 35.5994L51.8653 24.207C51.1648 23.5117 50.2172 23.1226 49.2302 23.125H20.1659C19.0515 23.1227 17.9616 23.4524 17.0354 24.0722C16.1092 24.692 15.3887 25.5737 14.9658 26.6049L11.2452 35.625H4.375C3.38079 35.6262 2.42764 36.0216 1.72463 36.7246C1.02162 37.4276 0.626158 38.3808 0.625 39.375V50.625C0.626158 51.6192 1.02162 52.5724 1.72463 53.2754C2.42764 53.9784 3.38079 54.3738 4.375 54.375H8.92891C8.65156 52.9285 8.69714 51.4387 9.0624 50.0119C9.42766 48.5851 10.1036 47.2566 11.0419 46.1213C11.9801 44.986 13.1576 44.072 14.4901 43.4446C15.8226 42.8172 17.2772 42.4919 18.75 42.4919C20.2228 42.4919 21.6774 42.8172 23.0099 43.4446C24.3424 44.072 25.5199 44.986 26.4581 46.1213C27.3964 47.2566 28.0723 48.5851 28.4376 50.0119C28.8029 51.4387 28.8484 52.9285 28.5711 54.375H53.9289C53.6516 52.9285 53.6971 51.4387 54.0624 50.0119C54.4277 48.5851 55.1036 47.2566 56.0419 46.1213C56.9801 44.986 58.1576 44.072 59.4901 43.4446C60.8226 42.8172 62.2772 42.4919 63.75 42.4919C65.2228 42.4919 66.6774 42.8172 68.0099 43.4446C69.3424 44.072 70.5199 44.986 71.4581 46.1213C72.3964 47.2566 73.0723 48.5851 73.4376 50.0119C73.8029 51.4387 73.8484 52.9285 73.5711 54.375H73.75C75.2413 54.3733 76.6711 53.7802 77.7256 52.7257C78.7802 51.6711 79.3733 50.2413 79.375 48.75V40C79.375 39.5594 79.2199 39.133 78.9368 38.7953C78.6537 38.4577 78.2608 38.2306 77.827 38.1538ZM21.4062 33.75C21.4062 34.2473 21.2087 34.7242 20.8571 35.0758C20.5054 35.4275 20.0285 35.625 19.5312 35.625H15.1459C14.9919 35.625 14.8402 35.5871 14.7043 35.5145C14.5684 35.4419 14.4525 35.337 14.3668 35.209C14.2811 35.0809 14.2283 34.9337 14.213 34.7804C14.1977 34.6271 14.2205 34.4724 14.2792 34.33L16.8759 28.035C17.0175 27.6917 17.2579 27.3982 17.5665 27.1917C17.8751 26.9852 18.238 26.875 18.6094 26.875H19.5312C20.0285 26.875 20.5054 27.0726 20.8571 27.4242C21.2087 27.7758 21.4062 28.2527 21.4062 28.75V33.75ZM37.5 33.75C37.5 34.2473 37.3025 34.7242 36.9508 35.0758C36.5992 35.4275 36.1223 35.625 35.625 35.625H26.4062C25.909 35.625 25.4321 35.4275 25.0804 35.0758C24.7288 34.7242 24.5312 34.2473 24.5312 33.75V28.75C24.5312 28.2527 24.7288 27.7758 25.0804 27.4242C25.4321 27.0726 25.909 26.875 26.4062 26.875H35.625C36.1223 26.875 36.5992 27.0726 36.9508 27.4242C37.3025 27.7758 37.5 28.2527 37.5 28.75V33.75ZM45 42.5H42.5C42.0027 42.5 41.5258 42.3025 41.1742 41.9508C40.8225 41.5992 40.625 41.1223 40.625 40.625C40.625 40.1277 40.8225 39.6508 41.1742 39.2992C41.5258 38.9476 42.0027 38.75 42.5 38.75H45C45.4973 38.75 45.9742 38.9476 46.3258 39.2992C46.6775 39.6508 46.875 40.1277 46.875 40.625C46.875 41.1223 46.6775 41.5992 46.3258 41.9508C45.9742 42.3025 45.4973 42.5 45 42.5ZM58.1164 35.625H42.5C42.0027 35.625 41.5258 35.4275 41.1742 35.0758C40.8225 34.7242 40.625 34.2473 40.625 33.75V28.75C40.625 28.2527 40.8225 27.7758 41.1742 27.4242C41.5258 27.0726 42.0027 26.875 42.5 26.875H50.68C51.1688 26.8751 51.6383 27.066 51.9884 27.4072L58.7706 34.0166C58.904 34.1467 58.9955 34.3137 59.0336 34.4961C59.0716 34.6785 59.0545 34.8681 58.9843 35.0407C58.914 35.2133 58.794 35.3611 58.6394 35.4652C58.4848 35.5693 58.3028 35.6249 58.1164 35.625V35.625Z" fill="#333333"/>
<path d="M41.7796 16.907C41.6552 16.5337 41.4164 16.209 41.0972 15.9789C40.7779 15.7488 40.3944 15.625 40.0008 15.625H30.0008C29.6074 15.6249 29.2239 15.7487 28.9047 15.9786C28.5855 16.2085 28.3467 16.5331 28.2221 16.9062L26.7744 21.25H43.2276L41.7796 16.907Z" fill="#333333"/>
</svg>
