<svg width="40" height="35" viewBox="0 0 40 35" fill="none" xmlns="http://www.w3.org/2000/svg">
<path d="M39.7702 10.8299C39.5745 10.5349 39.2827 10.3626 38.9764 10.3626H35.0835C34.1228 7.22995 32.8713 4.16057 31.4487 3.00195C26.5275 -1.00065 13.4743 -1.00065 8.55311 3.00195C7.1295 4.16184 5.88307 7.23502 4.91727 10.3626H1.02436C0.715054 10.3626 0.424187 10.5349 0.230617 10.8299C0.0360222 11.1237 -0.0418156 11.5124 0.0216836 11.8859L0.598298 15.3403C0.696619 15.9291 1.11653 16.3495 1.60097 16.3495H2.7542C1.64091 17.9373 1.10117 19.9367 1.094 21.9374C1.08683 24.4091 1.84575 26.6428 3.23352 28.223C3.24888 28.2395 3.26424 28.2509 3.27858 28.2674V33.1006C3.27858 34.1478 3.96683 35 4.81485 35H8.40563C9.25365 35 9.9419 34.1478 9.9419 33.1006V31.1582H30.0579V33.1006C30.0579 34.1478 30.7461 35 31.5941 35H35.1849C36.0309 35 36.7212 34.1478 36.7212 33.1006V28.3623C38.1939 26.6947 38.8976 24.4003 38.9068 22.1096C38.9129 20.0406 38.3486 17.9677 37.1698 16.3469H38.3998C38.8863 16.3469 39.3062 15.9265 39.4025 15.3365L39.9801 11.8834C40.0395 11.5124 39.9648 11.1262 39.7702 10.8299ZM10.2399 6.1739C14.1626 2.98169 25.8372 2.98169 29.7578 6.1739C30.5198 6.79183 31.4999 9.29013 32.3981 12.3494H7.60165C8.49781 9.2914 9.47795 6.79436 10.2399 6.1739ZM5.64546 22.4135C5.64546 20.3495 6.99943 18.6781 8.66782 18.6781C10.3383 18.6781 11.6902 20.3495 11.6902 22.4135C11.6902 24.4775 10.3383 26.1502 8.66782 26.1502C6.99943 26.1502 5.64546 24.4775 5.64546 22.4135ZM31.3719 26.1502C29.7035 26.1502 28.3495 24.4775 28.3495 22.4135C28.3495 20.3495 29.7035 18.6781 31.3719 18.6781C33.0423 18.6781 34.3942 20.3495 34.3942 22.4135C34.3942 24.4775 33.0403 26.1502 31.3719 26.1502Z" fill="#333333"/>
</svg>
