<svg width="35" height="35" viewBox="0 0 35 35" fill="none" xmlns="http://www.w3.org/2000/svg">
<path d="M19.552 17.5091L34.5551 2.50605C35.1342 1.94681 35.1502 1.02407 34.591 0.445019C34.0318 -0.134037 33.109 -0.150093 32.53 0.409148C32.5178 0.420849 32.5059 0.432806 32.4941 0.445019L17.4909 15.4481L2.48783 0.444934C1.90877 -0.114308 0.986039 -0.0982516 0.426797 0.480804C-0.118779 1.04568 -0.118779 1.94117 0.426797 2.50605L15.4299 17.5091L0.426797 32.5122C-0.142266 33.0814 -0.142266 34.0041 0.426797 34.5733C0.995946 35.1422 1.91868 35.1422 2.48783 34.5733L17.4909 19.5702L32.494 34.5733C33.0731 35.1325 33.9958 35.1165 34.555 34.5374C35.1005 33.9725 35.1005 33.077 34.555 32.5122L19.552 17.5091Z" fill="#F2F2F2"/>
</svg>
