<svg width="35" height="35" viewBox="0 0 35 35" fill="none" xmlns="http://www.w3.org/2000/svg">
<path d="M13.4895 0H2.55199C1.14475 0 0 1.14475 0 2.55199V9.11449C0 10.522 1.14475 11.6668 2.55199 11.6668H13.4895C14.897 11.6668 16.0418 10.522 16.0418 9.11449V2.55199C16.0418 1.14475 14.897 0 13.4895 0Z" fill="#333333"/>
<path d="M13.4895 14.5832H2.55199C1.14475 14.5832 0 15.728 0 17.1355V32.448C0 33.8552 1.14475 35 2.55199 35H13.4895C14.897 35 16.0418 33.8552 16.0418 32.448V17.1355C16.0418 15.728 14.897 14.5832 13.4895 14.5832V14.5832Z" fill="#333333"/>
<path d="M32.4478 23.3332H21.5103C20.1028 23.3332 18.958 24.478 18.958 25.8855V32.448C18.958 33.8552 20.1028 35 21.5103 35H32.4478C33.855 35 34.9998 33.8552 34.9998 32.448V25.8855C34.9998 24.478 33.855 23.3332 32.4478 23.3332V23.3332Z" fill="#333333"/>
<path d="M32.4478 0H21.5103C20.1028 0 18.958 1.14475 18.958 2.55199V17.8645C18.958 19.272 20.1028 20.4168 21.5103 20.4168H32.4478C33.855 20.4168 34.9998 19.272 34.9998 17.8645V2.55199C34.9998 1.14475 33.855 0 32.4478 0V0Z" fill="#333333"/>
</svg>
