<svg width="26" height="35" viewBox="0 0 26 35" fill="none" xmlns="http://www.w3.org/2000/svg">
<path d="M3.05126 33.3121C3.09063 34.2555 3.86435 35 4.80528 35H21.1944C22.1353 35 22.9091 34.2555 22.9484 33.3121L24.1188 8.52271H1.88086L3.05126 33.3121ZM16.7073 14.68C16.7073 14.285 17.0265 13.9646 17.4203 13.9646H18.5609C18.9545 13.9646 19.2739 14.2849 19.2739 14.68V28.8427C19.2739 29.2378 18.9547 29.5581 18.5609 29.5581H17.4203C17.0267 29.5581 16.7073 29.238 16.7073 28.8427V14.68ZM11.7166 14.68C11.7166 14.285 12.0358 13.9646 12.4296 13.9646H13.5701C13.9637 13.9646 14.2831 14.2849 14.2831 14.68V28.8427C14.2831 29.2378 13.964 29.5581 13.5701 29.5581H12.4296C12.0359 29.5581 11.7166 29.238 11.7166 28.8427V14.68ZM6.72575 14.68C6.72575 14.285 7.04497 13.9646 7.43875 13.9646H8.57935C8.97304 13.9646 9.29235 14.2849 9.29235 14.68V28.8427C9.29235 29.2378 8.97313 29.5581 8.57935 29.5581H7.43875C7.04506 29.5581 6.72575 29.238 6.72575 28.8427V14.68Z" fill="#333333"/>
<path d="M24.8983 1.80302H17.3375V0.368865C17.3375 0.165197 17.1729 0 16.9698 0H9.03015C8.82716 0 8.66259 0.165197 8.66259 0.368865V1.80294H1.10166C0.493183 1.80294 0 2.29784 0 2.90833V6.3808H26V2.90842C26 2.29793 25.5068 1.80302 24.8983 1.80302Z" fill="#333333"/>
</svg>
