<svg width="150" height="150" viewBox="0 0 150 150" fill="none" xmlns="http://www.w3.org/2000/svg">
<circle cx="75" cy="75" r="75" fill="#33ABDA"/>
<path d="M74.9995 85.7227C73.5456 85.7227 72.3628 84.5398 72.3628 83.0859C72.3628 82.0239 72.9947 81.0701 73.9727 80.6558C75.1535 80.1558 76.5664 80.5825 77.8503 81.8263C78.8962 82.8395 80.5654 82.8131 81.5786 81.7674C82.592 80.7215 82.5654 79.0523 81.5197 78.0391C80.3293 76.8858 79.0061 76.0707 77.6362 75.6107V72.5391C77.6362 71.0829 76.4557 69.9023 74.9995 69.9023C73.5433 69.9023 72.3628 71.0829 72.3628 72.5391V75.6277C72.2132 75.681 72.0641 75.7372 71.9163 75.7998C68.9841 77.0417 67.0893 79.9017 67.0893 83.0859C67.0893 87.4476 70.6378 90.9961 74.9995 90.9961C76.4534 90.9961 77.6362 92.1789 77.6362 93.6328C77.6362 94.7378 76.9392 95.7341 75.9019 96.1119C74.5476 96.6049 72.971 95.9361 71.5767 94.2758C70.6401 93.1607 68.9771 93.016 67.8619 93.9526C66.7468 94.8891 66.6021 96.5524 67.5386 97.6673C68.9641 99.3645 70.6232 100.528 72.3629 101.114V104.18C72.3629 105.636 73.5435 106.816 74.9997 106.816C76.4558 106.816 77.6364 105.636 77.6364 104.18V101.091C77.6599 101.082 77.6835 101.075 77.7069 101.067C80.8187 99.9333 82.9096 96.9458 82.9096 93.6328C82.9096 89.2712 79.3611 85.7227 74.9995 85.7227Z" fill="#F2F2F2"/>
<path d="M99.4194 69.5963C96.2855 65.7409 92.7031 62.6693 88.7705 60.4604C89.4146 59.6984 89.9228 58.8049 90.251 57.8091C91.5387 53.8876 89.6577 49.2294 84.8566 47.7119L91.5871 35.9759C92.4363 34.4947 91.6734 32.6082 90.036 32.1322C85.1696 30.7174 80.111 30 75 30C69.889 30 64.8304 30.7174 59.964 32.1322C58.3247 32.6088 57.5648 34.4965 58.4129 35.9759L65.1434 47.7121C60.3613 49.2219 58.4565 53.8732 59.7497 57.8112C60.0769 58.8044 60.5849 59.6974 61.2309 60.4597C57.2978 62.6686 53.715 65.7405 50.5808 69.5963C44.3158 77.3038 40.7227 87.0257 40.7227 96.2695C40.7227 115.446 56.0239 120 75 120C93.9895 120 109.277 115.438 109.277 96.2695C109.277 87.0257 105.684 77.3038 99.4194 69.5963ZM64.7161 36.3664C68.08 35.6403 71.5262 35.2734 75 35.2734C78.4738 35.2734 81.92 35.6403 85.2839 36.3664L79.4773 46.4918C76.5033 46.0766 73.4976 46.0768 70.5229 46.492L64.7161 36.3664ZM66.4388 52.8333C70.9765 51.3448 75.724 51.0626 80.3395 51.9853C80.345 51.9864 80.3506 51.9874 80.3561 51.9885C81.4318 52.2043 82.5004 52.4852 83.5576 52.8321C84.9394 53.2875 85.6945 54.7822 85.2415 56.1615C84.9123 57.1605 84.0431 57.8485 83.0205 57.9599C80.3916 57.1368 77.71 56.7188 75 56.7188C72.2954 56.7188 69.6192 57.135 66.9953 57.9548C65.9569 57.848 65.0856 57.155 64.7592 56.164C64.3055 54.7822 65.0606 53.2873 66.4388 52.8333ZM75 114.762C54.3991 114.762 45.9961 109.379 45.9961 96.2695C45.9961 88.3344 49.2398 79.6067 54.6727 72.9226C60.4022 65.874 67.6212 61.9922 75 61.9922C83.1221 61.9922 90.2264 66.6472 95.3273 72.9226C100.76 79.6067 104.004 88.3344 104.004 96.2695C104.004 109.379 95.6009 114.762 75 114.762Z" fill="#F2F2F2"/>
</svg>
