<svg width="150" height="150" viewBox="0 0 150 150" fill="none" xmlns="http://www.w3.org/2000/svg">
<circle cx="75" cy="75" r="75" fill="#33ABDA"/>
<path d="M75 125C61.6445 125 49.0883 119.799 39.6445 110.355C30.2008 100.912 25 88.3555 25 75C25 61.6445 30.201 49.0885 39.6445 39.6445C49.0881 30.2006 61.6445 25 75 25C88.3555 25 100.912 30.2008 110.355 39.6445C119.799 49.0883 125 61.6445 125 75C125 88.3555 119.799 100.912 110.355 110.355C100.912 119.799 88.3555 125 75 125V125ZM75 31.25C50.8762 31.25 31.25 50.8762 31.25 75C31.25 99.1238 50.8762 118.75 75 118.75C99.1238 118.75 118.75 99.1238 118.75 75C118.75 50.8762 99.1238 31.25 75 31.25Z" fill="#F2F2F2"/>
<path d="M75 71.875C70.6922 71.875 67.1875 68.3703 67.1875 64.0625C67.1875 59.7547 70.6922 56.25 75 56.25C79.3078 56.25 82.8125 59.7547 82.8125 64.0625C82.8125 65.7883 84.2115 67.1875 85.9375 67.1875C87.6635 67.1875 89.0625 65.7883 89.0625 64.0625C89.0625 57.3826 84.3793 51.7797 78.125 50.3543V46.875C78.125 45.1492 76.726 43.75 75 43.75C73.274 43.75 71.875 45.1492 71.875 46.875V50.3543C65.6207 51.7797 60.9375 57.3826 60.9375 64.0625C60.9375 71.8166 67.2459 78.125 75 78.125C79.3078 78.125 82.8125 81.6297 82.8125 85.9375C82.8125 90.2453 79.3078 93.75 75 93.75C70.6922 93.75 67.1875 90.2453 67.1875 85.9375C67.1875 84.2117 65.7885 82.8125 64.0625 82.8125C62.3365 82.8125 60.9375 84.2117 60.9375 85.9375C60.9375 92.6174 65.6207 98.2203 71.875 99.6457V103.125C71.875 104.851 73.274 106.25 75 106.25C76.726 106.25 78.125 104.851 78.125 103.125V99.6457C84.3793 98.2203 89.0625 92.6174 89.0625 85.9375C89.0625 78.1834 82.7541 71.875 75 71.875Z" fill="#F2F2F2"/>
</svg>
