<svg id="Layer_1" enable-background="new 0 0 512 512" height="512" viewBox="0 0 512 512" width="512" xmlns="http://www.w3.org/2000/svg"><g><g><g><path d="m467 451h-422c-24.813 0-45-20.187-45-45v-300c0-24.813 20.187-45 45-45h422c24.813 0 45 20.187 45 45v300c0 24.813-20.187 45-45 45z" fill="#7dd5f4"/></g></g><path d="m467 61h-210.075v390h210.075c24.813 0 45-20.187 45-45v-300c0-24.813-20.187-45-45-45z" fill="#4793ff"/><g><g><path d="m445.463 210h-122c-8.284 0-15-6.716-15-15s6.716-15 15-15h122c8.284 0 15 6.716 15 15s-6.716 15-15 15z" fill="#001737"/></g><g><path d="m445.463 270.001h-122c-8.284 0-15-6.716-15-15s6.716-15 15-15h122c8.284 0 15 6.716 15 15s-6.716 15-15 15z" fill="#001737"/></g><g><path d="m397.463 330.001h-74c-8.284 0-15-6.716-15-15s6.716-15 15-15h74c8.284 0 15 6.716 15 15s-6.716 15-15 15z" fill="#001737"/></g><g><path d="m445.343 391.001h-41.88c-8.284 0-15-6.716-15-15s6.716-15 15-15h41.88c8.284 0 15 6.716 15 15s-6.716 15-15 15z" fill="#001737"/></g></g><g><g><path d="m437.041 151h-362.082c-8.284 0-15-6.716-15-15s6.716-15 15-15h362.082c8.284 0 15 6.716 15 15s-6.716 15-15 15z" fill="#00347b"/></g></g><g><g><g><path d="m218 391h-180c-8.284 0-15-6.716-15-15v-180c0-8.284 6.716-15 15-15h180c8.284 0 15 6.716 15 15v180c0 8.284-6.716 15-15 15z" fill="#f6efea"/></g></g></g><g><g><path d="m190.999 390.999h-125.998c-8.284 0-15-6.716-15-15 0-43.009 34.99-77.999 77.999-77.999s77.999 34.99 77.999 77.999c0 8.284-6.716 15-15 15z" fill="#fdbf00"/></g></g><g><path d="m128 325c-24.813 0-45-20.187-45-45s20.187-45 45-45 45 20.187 45 45-20.187 45-45 45z" fill="#ffdecf"/></g><path d="m437.041 121h-180.116v30h180.116c8.284 0 15-6.716 15-15s-6.716-15-15-15z" fill="#001737"/></g></svg>