<svg width="32" height="35" viewBox="0 0 32 35" fill="none" xmlns="http://www.w3.org/2000/svg">
<path d="M18.7207 17.5074L31.4564 4.41341C31.8071 4.05374 32 3.57285 32 3.06008C32 2.54703 31.8071 2.06642 31.4564 1.70618L30.3404 0.559431C29.9903 0.198618 29.5223 0 29.0235 0C28.5248 0 28.0573 0.198618 27.7069 0.559431L12.543 16.1489C12.1913 16.5103 11.9986 16.9932 12 17.5065C11.9986 18.0222 12.191 18.5045 12.543 18.8661L27.6928 34.4406C28.0432 34.8014 28.5107 35 29.0097 35C29.5084 35 29.9759 34.8014 30.3266 34.4406L31.4423 33.2938C32.1683 32.5474 32.1683 31.3324 31.4423 30.5863L18.7207 17.5074Z" fill="#333333"/>
<path d="M0.576642 0H5.42336C5.7427 0 6 0.355828 6 0.784394V34.0769C6 34.5133 5.74088 34.8692 5.42336 34.8692H0.576642C0.259124 34.8692 0 34.5114 0 34.0769V0.78636C0 0.355828 0.260949 0 0.576642 0Z" fill="#333333"/>
</svg>
