<svg width="32" height="35" viewBox="0 0 32 35" fill="none" xmlns="http://www.w3.org/2000/svg">
<path d="M13.2793 17.4926L0.543592 30.5866C0.192914 30.9463 1.90735e-06 31.4272 1.90735e-06 31.9399C1.90735e-06 32.453 0.192914 32.9336 0.543592 33.2938L1.65956 34.4406C2.00969 34.8014 2.47772 35 2.97647 35C3.47523 35 3.9427 34.8014 4.29311 34.4406L19.457 18.8511C19.8087 18.4897 20.0014 18.0068 20 17.4935C20.0014 16.9778 19.809 16.4955 19.457 16.1339L4.30722 0.559433C3.95682 0.19862 3.48934 0 2.99031 0C2.49156 0 2.02408 0.19862 1.6734 0.559433L0.557709 1.70618C-0.16828 2.45256 -0.16828 3.6676 0.557709 4.4137L13.2793 17.4926Z" fill="#333333"/>
<path d="M31.4234 35H26.5766C26.2573 35 26 34.6442 26 34.2156L26 0.923091C26 0.486661 26.2591 0.130834 26.5766 0.130834H31.4234C31.7409 0.130834 32 0.488627 32 0.923091L32 34.2136C32 34.6442 31.7391 35 31.4234 35Z" fill="#333333"/>
</svg>
