<svg width="400" height="128" viewBox="0 0 400 128" fill="none" xmlns="http://www.w3.org/2000/svg">
<g clip-path="url(#clip0)">
<path d="M328.565 7.01374L226.487 9.73547L198.891 10.021C192.029 8.53639 186.131 7.30875 181.367 6.46654L170.444 0.685211L328.565 7.01374Z" fill="white"/>
<path d="M259.677 28.0739C261.764 28.6263 263.807 29.3373 265.785 30.2008L259.041 30.2484C249.611 26.9176 233.012 22.8825 225.5 21.0983L226.449 21.1363H226.497C235.633 22.8825 254.659 26.5797 259.677 28.0739Z" fill="white"/>
<path d="M377.817 28.0263L316.628 29.6536L269.613 30.1295C268.377 28.4831 266.288 26.8987 264.009 25.5283C263.972 25.5224 263.937 25.5059 263.909 25.4807C262.897 25.1 261.739 24.6955 260.391 24.2387L260.319 24.1912C258.168 23.4536 256.045 22.7923 253.875 22.1784L284.909 23.4012L377.817 28.0263Z" fill="white"/>
<path d="M136.187 39.9696C136.187 39.9696 132.962 40.6644 130.188 41.4685C131.318 40.0887 135.412 35.2256 136.969 34.8069C138.779 34.3311 149.227 34.8069 149.227 34.8069C149.227 34.8069 138.484 32.8751 136.124 34.3025C133.764 35.73 128.782 41.8729 128.782 41.8729H128.882C128.659 41.9491 128.445 42.0109 128.241 42.0871C128.241 42.0871 132.202 35.4255 135.811 33.4889C139.42 31.5523 152.399 33.9647 153.947 36.1868C155.496 38.4089 146.548 41.7017 136.187 39.9696Z" fill="white"/>
<path d="M346.304 51.8653C346.397 51.5797 346.416 51.2745 346.356 50.9799C346.296 50.6852 346.16 50.4113 345.961 50.1856C344.869 48.7581 341.853 47.6019 339.441 46.912C338.425 46.4203 337.367 46.0221 336.279 45.7224C335.109 45.3879 333.912 45.1601 332.703 45.042H332.655C332.095 44.9848 331.492 44.9277 330.908 44.9183L328.196 44.8564H327.807L249.62 43.248C251.655 42.97 253.669 42.5599 255.651 42.0204C257.504 41.5303 259.32 40.9069 261.084 40.1552C262.317 39.6216 263.403 38.7967 264.249 37.7509C265.095 36.7052 265.676 35.4697 265.941 34.1503V34.1027C266.127 33.1509 263.329 31.7805 259.013 30.2389C249.581 26.9081 232.984 22.8731 225.471 21.0887L222.28 20.3369C223.101 20.4939 224.555 20.7604 226.44 21.1268H226.487C235.605 22.8825 254.629 26.5797 259.649 28.0644C261.736 28.6167 263.777 29.3277 265.756 30.1913C268.331 31.3667 269.451 32.7227 269.033 34.8021C270.344 33.17 270.657 31.5951 269.703 30.296C269.656 30.2436 269.632 30.1961 269.584 30.1485C268.349 28.5021 266.26 26.9176 263.98 25.5472C263.943 25.5413 263.908 25.5248 263.88 25.4996C262.869 25.1189 261.711 24.7145 260.361 24.2577L260.291 24.2101C258.139 23.4727 256.016 22.8112 253.847 22.1973C249.815 20.9983 245.731 19.9943 241.593 19.1568C225.376 15.8641 210.725 12.5714 198.853 10.0209C191.991 8.53636 186.093 7.30872 181.329 6.46649C178.307 5.86825 175.253 5.43461 172.183 5.16748C165.183 4.72972 151.364 9.89723 140.84 16.8396C135.82 20.1465 122.998 30.3579 121.54 33.1557C120.396 35.3017 121.54 37.7237 122.613 39.4604C122.899 39.9393 123.217 40.3987 123.563 40.8356C124.945 40.8356 126.327 40.8737 127.733 40.9212L130.62 40.9593C131.029 40.9593 131.465 40.9973 131.879 41.0021C138.157 41.1164 144.359 41.2544 150.324 41.3637C182.773 42.0728 208.873 42.7627 208.873 42.7627L206.927 45.2037L72.5308 44.8373C50.4529 45.3988 39.1979 46.0507 34.6673 46.8833C19.1573 49.7384 12.9837 56.2429 0 66.2353C0 66.2353 9.19874 41.5636 44.6403 40.2741C58.8016 39.7697 71.8423 39.9744 103.527 40.5025C106.12 37.3288 107.953 36.1677 111.639 32.9179C118.249 27.0604 151.017 2.28872 168.825 0.114186C171.4 -0.185586 175.783 0.114186 181.444 0.904061L182.536 1.06584C193.757 2.65987 209.691 5.97164 226.487 9.73544C246.88 14.2987 268.601 19.566 284.9 23.4203C295.993 26.0325 304.569 27.974 308.54 28.5925C311.199 28.9923 313.911 29.3491 316.613 29.6536C331.501 31.3237 345.924 31.5047 345.924 31.5047L338.125 42.9816L338.249 43.034C338.307 43.0417 338.363 43.0577 338.416 43.0815C339.4 43.4 340.368 43.7717 341.312 44.1949C342.187 44.5701 343.037 44.9959 343.863 45.4701C345.881 46.6407 347.847 48.2205 348.497 50.1761C348.567 50.2889 348.615 50.4129 348.64 50.5425C348.735 50.9328 348.793 51.3309 348.816 51.7321C347.496 55.2151 345.988 58.6239 344.3 61.9433C344.897 58.8172 345.429 55.6433 345.677 53.7068V53.4356C345.948 52.8169 346.199 52.2793 346.304 51.8653Z" fill="white"/>
<path d="M400 48.6535L349.48 50.1619L345.307 50.1999C343.943 49.1151 341.46 47.9349 339.441 46.9119C338.425 46.4203 337.367 46.0221 336.279 45.7224L336.653 45.2037L344.333 45.5083L400 48.6535Z" fill="#2F2E41"/>
<path d="M373.805 66.4971L341.82 66.8396H339.493C339.745 66.3637 340.021 65.7785 340.32 65.1743L342.647 65.2599L373.805 66.4971Z" fill="#2F2E41"/>
<path d="M349.483 50.1619C349.279 50.5996 349.056 51.1135 348.828 51.7322C347.504 55.2152 345.993 58.624 344.301 61.9434C343.699 63.1758 343.129 64.3226 342.631 65.2742C342.331 65.8499 342.056 66.3828 341.804 66.8396C341.329 67.8532 340.959 68.4814 340.959 68.4814L338.551 68.8096C338.551 68.8096 338.927 68.0626 339.501 66.854C339.752 66.3782 340.028 65.7928 340.327 65.1886C341.999 61.6912 344.449 56.481 345.708 53.4356C345.955 52.8123 346.183 52.2794 346.311 51.8654C346.337 51.7964 346.355 51.7246 346.363 51.6512C346.363 51.1754 345.964 50.6996 345.313 50.2238C343.951 49.1388 341.467 47.9588 339.448 46.9358C338.432 46.4442 337.373 46.0459 336.285 45.7462L336.656 45.2038L338.128 42.9816L338.252 43.034C338.309 43.0418 338.365 43.0578 338.417 43.0815L338.636 43.1576C338.879 43.2576 339.192 43.386 339.587 43.5146C340.061 43.7144 340.673 43.9428 341.324 44.195C342.275 44.5471 343.3 45.023 344.335 45.4988C346.453 46.5028 348.5 47.6019 349.364 48.1206C350.228 48.6392 349.929 49.1484 349.483 50.1619Z" fill="#2F2E41"/>
<path d="M48.6334 56.74H56.5534L72.6868 97.8067L88.8201 56.74H96.7401L76.2801 108H69.0934L48.6334 56.74ZM109.693 109.1C105.439 109.1 102.017 108.024 99.426 105.873C96.8837 103.673 95.6126 100.716 95.6126 97C95.6126 93.0889 96.8348 90.0822 99.2793 87.98C101.773 85.8289 105.293 84.7533 109.839 84.7533C114.679 84.7533 118.786 85.731 122.159 87.6866V85.8533C122.159 83.0667 121.304 81.0133 119.593 79.6933C117.93 78.3244 115.29 77.64 111.673 77.64C109.521 77.64 107.419 77.86 105.366 78.3C103.361 78.691 101.553 79.2533 99.9393 79.9867V73.9733C101.406 73.2889 103.313 72.7511 105.659 72.36C108.006 71.92 110.279 71.7 112.479 71.7C118.297 71.7 122.599 72.9956 125.386 75.5867C128.221 78.1289 129.639 81.6733 129.639 86.22V108H122.673V104.04C121.157 105.702 119.348 106.973 117.246 107.853C115.193 108.684 112.675 109.1 109.693 109.1ZM111.526 103.453C113.873 103.453 115.999 102.989 117.906 102.06C119.813 101.131 121.23 99.8356 122.159 98.1733V93.4066C118.981 91.3533 115.437 90.3267 111.526 90.3267C108.69 90.3267 106.564 90.8889 105.146 92.0133C103.777 93.0889 103.093 94.751 103.093 97C103.093 101.302 105.904 103.453 111.526 103.453ZM150.736 109.1C148.292 109.1 145.701 108.782 142.963 108.147C140.225 107.56 138.075 106.753 136.509 105.727V99.42C138.416 100.544 140.616 101.473 143.109 102.207C145.603 102.891 148.023 103.233 150.369 103.233C153.009 103.233 154.941 102.916 156.163 102.28C157.385 101.644 157.996 100.618 157.996 99.2C157.996 98.1244 157.703 97.2689 157.116 96.6333C156.579 95.9489 155.625 95.3377 154.256 94.8C152.936 94.2622 150.932 93.6266 148.243 92.8933C145.359 92.0622 143.061 91.2311 141.349 90.4C139.688 89.52 138.416 88.42 137.536 87.1C136.705 85.78 136.289 84.0689 136.289 81.9666C136.289 78.5933 137.609 76.0511 140.249 74.34C142.939 72.58 146.532 71.7 151.029 71.7C153.376 71.7 155.675 71.92 157.923 72.36C160.172 72.8 161.981 73.4111 163.349 74.1933V80.3533C161.932 79.5223 160.172 78.8622 158.069 78.3733C156.016 77.8844 153.915 77.64 151.763 77.64C149.172 77.64 147.192 77.9577 145.823 78.5933C144.455 79.2289 143.769 80.3533 143.769 81.9666C143.769 82.9933 144.063 83.8244 144.649 84.46C145.236 85.0956 146.165 85.6577 147.436 86.1467C148.756 86.5867 150.835 87.1733 153.669 87.9066C158.119 89.1289 161.199 90.5711 162.909 92.2333C164.669 93.8956 165.549 96.1933 165.549 99.1266C165.549 102.158 164.303 104.578 161.809 106.387C159.316 108.196 155.625 109.1 150.736 109.1ZM186.128 109.1C182.559 109.1 179.796 108.073 177.841 106.02C175.935 103.967 174.981 101.058 174.981 97.2933V78.52H169.628V72.8H174.981V62.24H182.461V72.8H191.115V78.52H182.461V96.78C182.461 99.1266 182.901 100.789 183.781 101.767C184.709 102.744 186.372 103.233 188.768 103.233C190.185 103.233 191.603 102.916 193.021 102.28V108.147C191.163 108.782 188.865 109.1 186.128 109.1Z" fill="#2F2E41"/>
<path d="M199.989 72.8H207.176V79.1067C208.643 76.9556 210.696 75.3667 213.336 74.34C216.025 73.3133 219.129 72.8 222.649 72.8V78.5933C218.885 78.5933 215.659 79.2044 212.969 80.4267C210.28 81.6489 208.423 83.58 207.396 86.22V108H199.989V72.8ZM233.607 65.9067C232.384 65.9067 231.357 65.4911 230.527 64.66C229.695 63.8289 229.28 62.8023 229.28 61.58C229.28 60.3577 229.695 59.3311 230.527 58.5C231.357 57.6689 232.384 57.2533 233.607 57.2533C234.877 57.2533 235.928 57.6689 236.76 58.5C237.64 59.3311 238.08 60.3577 238.08 61.58C238.08 62.8023 237.64 63.8289 236.76 64.66C235.928 65.4911 234.877 65.9067 233.607 65.9067ZM229.867 72.8H237.42V108H229.867V72.8ZM264.627 109.1C261.107 109.1 257.928 108.342 255.093 106.827C252.307 105.262 250.107 103.087 248.493 100.3C246.928 97.4644 246.147 94.1889 246.147 90.4733C246.147 86.8067 246.928 83.5556 248.493 80.72C250.107 77.8844 252.307 75.6844 255.093 74.12C257.928 72.5067 261.107 71.7 264.627 71.7C270.981 71.7 275.797 73.6311 279.073 77.4933V53.8067H286.48V108H279.293V102.867C277.337 105.018 275.187 106.607 272.84 107.633C270.541 108.611 267.804 109.1 264.627 109.1ZM266.313 103.233C269.344 103.233 271.984 102.451 274.233 100.887C276.531 99.2733 278.144 97.1222 279.073 94.4333V86.5133C278.241 83.8244 276.653 81.6733 274.307 80.06C272.008 78.4467 269.344 77.64 266.313 77.64C263.917 77.64 261.741 78.1777 259.787 79.2533C257.88 80.3289 256.364 81.8444 255.24 83.8C254.164 85.7556 253.627 87.98 253.627 90.4733C253.627 92.9667 254.164 95.1911 255.24 97.1467C256.364 99.1023 257.88 100.618 259.787 101.693C261.741 102.72 263.917 103.233 266.313 103.233ZM315.384 109.1C308.883 109.1 303.773 107.487 300.057 104.26C296.391 100.984 294.557 96.3889 294.557 90.4733C294.557 84.7044 296.196 80.1333 299.471 76.76C302.796 73.3867 307.513 71.7 313.624 71.7C317.683 71.7 321.129 72.4823 323.964 74.0467C326.8 75.5623 328.927 77.6889 330.344 80.4267C331.811 83.1156 332.544 86.1956 332.544 89.6667V93.3333H301.597C301.843 96.6577 303.236 99.1511 305.777 100.813C308.369 102.427 311.864 103.233 316.264 103.233C318.513 103.233 320.787 103.038 323.084 102.647C325.383 102.207 327.411 101.644 329.171 100.96V106.9C327.607 107.536 325.529 108.049 322.937 108.44C320.396 108.88 317.877 109.1 315.384 109.1ZM325.577 88.1267C325.48 84.8023 324.38 82.2356 322.277 80.4267C320.224 78.5689 317.291 77.64 313.477 77.64C309.763 77.64 306.877 78.5933 304.824 80.5C302.771 82.4067 301.696 84.9489 301.597 88.1267H325.577Z" fill="white"/>
</g>
<defs>
<clipPath id="clip0">
<path d="M0 0H370C386.569 0 400 13.4315 400 30V98C400 114.569 386.569 128 370 128H0V0Z" fill="white"/>
</clipPath>
</defs>
</svg>
