<svg width="45" height="35" viewBox="0 0 45 35" fill="none" xmlns="http://www.w3.org/2000/svg">
<path d="M43.125 19.5195H1.875C0.839996 19.5195 0 18.6149 0 17.5003C0 16.3856 0.839996 15.481 1.875 15.481H43.125C44.16 15.481 45 16.3856 45 17.5003C45 18.6149 44.16 19.5195 43.125 19.5195Z" fill="#F2F2F2"/>
<path d="M43.125 4.03848H1.875C0.839996 4.03848 0 3.13386 0 2.01924C0 0.904616 0.839996 0 1.875 0H43.125C44.16 0 45 0.904616 45 2.01924C45 3.13386 44.16 4.03848 43.125 4.03848Z" fill="#F2F2F2"/>
<path d="M43.125 35H1.875C0.839996 35 0 34.0954 0 32.9808C0 31.8661 0.839996 30.9615 1.875 30.9615H43.125C44.16 30.9615 45 31.8661 45 32.9808C45 34.0954 44.16 35 43.125 35Z" fill="#F2F2F2"/>
</svg>
