<svg width="20" height="35" viewBox="0 0 20 35" fill="none" xmlns="http://www.w3.org/2000/svg">
<path d="M19.457 16.1343L4.30738 0.559142C3.95699 0.198616 3.48925 0 2.99051 0C2.49177 0 2.02402 0.198616 1.67363 0.559142L0.55797 1.70588C-0.168 2.45311 -0.168 3.66757 0.55797 4.41366L13.2795 17.4927L0.543854 30.5863C0.193463 30.9469 0 31.4275 0 31.9399C0 32.453 0.193463 32.9336 0.543854 33.2944L1.65952 34.4409C2.01018 34.8014 2.47765 35 2.97639 35C3.47513 35 3.94287 34.8014 4.29327 34.4409L19.457 18.8515C19.8082 18.4898 20.0011 18.0069 20 17.4936C20.0011 16.9783 19.8082 16.4957 19.457 16.1343Z" fill="#333333"/>
</svg>
