<svg width="20" height="35" viewBox="0 0 20 35" fill="none" xmlns="http://www.w3.org/2000/svg">
<path d="M6.72074 17.5074L19.4564 4.41341C19.8071 4.05374 20 3.57285 20 3.06008C20 2.54703 19.8071 2.06642 19.4564 1.70618L18.3404 0.559431C17.9903 0.198618 17.5223 0 17.0235 0C16.5248 0 16.0573 0.198618 15.7069 0.559431L0.543046 16.1489C0.191261 16.5103 -0.00137648 16.9932 7.41525e-06 17.5065C-0.00137648 18.0222 0.190984 18.5045 0.543046 18.8661L15.6928 34.4406C16.0432 34.8014 16.5107 35 17.0097 35C17.5084 35 17.9759 34.8014 18.3266 34.4406L19.4423 33.2938C20.1683 32.5474 20.1683 31.3324 19.4423 30.5863L6.72074 17.5074Z" fill="#333333"/>
</svg>
