<svg width="35" height="35" viewBox="0 0 35 35" fill="none" xmlns="http://www.w3.org/2000/svg">
<path d="M25.6849 22.5916C27.4072 20.2397 28.4374 17.3507 28.4374 14.2188C28.4374 6.37891 22.0586 0.00012207 14.2187 0.00012207C6.37872 0.00012207 0 6.37891 0 14.2188C0 22.0588 6.37879 28.4376 14.2187 28.4376C17.3506 28.4376 20.2398 27.4072 22.5918 25.6849L31.9068 34.9999L35 31.9067C35 31.9066 25.6849 22.5916 25.6849 22.5916V22.5916ZM14.2187 24.0625C8.79056 24.0625 4.37502 19.647 4.37502 14.2188C4.37502 8.79068 8.79056 4.37514 14.2187 4.37514C19.6469 4.37514 24.0624 8.79068 24.0624 14.2188C24.0624 19.647 19.6468 24.0625 14.2187 24.0625Z" fill="#333333"/>
</svg>
