<svg width="35" height="35" viewBox="0 0 35 35" fill="none" xmlns="http://www.w3.org/2000/svg">
<path d="M33.9501 21.3353L30.7331 18.8197C30.8328 17.9417 30.8328 17.0552 30.7331 16.1772L33.9531 13.6602C34.5565 13.1742 34.7177 12.3221 34.3337 11.6491L30.9868 5.86398C30.6014 5.18681 29.7804 4.89109 29.0517 5.16692L25.26 6.69235C24.5475 6.17542 23.7842 5.73225 22.9821 5.36967L22.4002 1.34175C22.2952 0.568473 21.6318 -0.00628991 20.8514 6.74835e-05H14.1432C13.3693 -0.00458093 12.7112 0.563757 12.6032 1.33006L12.0198 5.36961C11.2201 5.73567 10.4581 6.17918 9.74486 6.69379L5.94293 5.16542C5.22174 4.88111 4.4015 5.17328 4.02231 5.84935L0.672513 11.6448C0.278149 12.3188 0.440502 13.1803 1.05314 13.6646L4.27018 16.1802C4.16949 17.0581 4.16949 17.9447 4.27018 18.8227L1.0502 21.3383C0.445765 21.8236 0.283754 22.6762 0.668138 23.3493L4.01356 29.136C4.39856 29.8137 5.22003 30.1096 5.94874 29.8331L9.74042 28.3076C10.4535 28.8248 11.2172 29.2685 12.0198 29.6318L12.6031 33.6568C12.7058 34.428 13.3651 35.0031 14.1431 34.9999H20.8514C21.6267 35.0061 22.2869 34.4376 22.3957 33.6699L22.979 29.6304C23.7787 29.2642 24.5406 28.8207 25.254 28.3062L29.0603 29.836C29.7815 30.1196 30.6013 29.8277 30.9809 29.1521L34.3409 23.3333C34.7171 22.6614 34.5517 21.816 33.9501 21.3353ZM17.4973 24.7916C13.4702 24.7916 10.2056 21.527 10.2056 17.4999C10.2056 13.4728 13.4702 10.2083 17.4973 10.2083C21.5244 10.2083 24.7889 13.4728 24.7889 17.4999C24.7841 21.525 21.5223 24.7868 17.4973 24.7916Z" fill="#333333"/>
</svg>
