<svg width="40" height="35" viewBox="0 0 40 35" fill="none" xmlns="http://www.w3.org/2000/svg">
<path d="M20 13.6322C23.7539 13.6322 26.7969 10.5805 26.7969 6.81608C26.7969 3.05166 23.7539 0 20 0C16.2462 0 13.2031 3.05166 13.2031 6.81608C13.2031 10.5805 16.2462 13.6322 20 13.6322Z" fill="#333333"/>
<path d="M33.75 13.6321C36.1231 13.6321 38.0469 11.7029 38.0469 9.32307C38.0469 6.94326 36.1231 5.01405 33.75 5.01405C31.3769 5.01405 29.4531 6.94326 29.4531 9.32307C29.4531 11.7029 31.3769 13.6321 33.75 13.6321Z" fill="#333333"/>
<path d="M6.25002 13.6321C8.62313 13.6321 10.5469 11.7029 10.5469 9.32307C10.5469 6.94326 8.62313 5.01405 6.25002 5.01405C3.87691 5.01405 1.95312 6.94326 1.95312 9.32307C1.95312 11.7029 3.87691 13.6321 6.25002 13.6321Z" fill="#333333"/>
<path d="M10.4836 17.5016C8.79223 16.1119 7.26042 16.2959 5.30471 16.2959C2.3797 16.2959 0 18.6682 0 21.5835V30.1396C0 31.4057 1.03047 32.4351 2.29767 32.4351C7.76847 32.4351 7.10941 32.5344 7.10941 32.1985C7.10941 26.1357 6.39331 21.6895 10.4836 17.5016V17.5016Z" fill="#333333"/>
<path d="M21.8604 16.3272C18.4445 16.0414 15.4753 16.3305 12.9143 18.4503C8.62858 21.8929 9.45335 26.528 9.45335 32.1984C9.45335 33.6987 10.6705 34.9421 12.1893 34.9421C28.6802 34.9421 29.3365 35.4756 30.3144 33.3039C30.6351 32.5695 30.5472 32.8029 30.5472 25.7772C30.5472 20.197 25.729 16.3272 21.8604 16.3272V16.3272Z" fill="#333333"/>
<path d="M34.6955 16.2958C32.7291 16.2958 31.2057 16.1138 29.5166 17.5016C33.5764 21.6583 32.8908 25.8011 32.8908 32.1984C32.8908 32.5364 32.3437 32.435 37.6205 32.435C38.9331 32.435 40.0002 31.3688 40.0002 30.058V21.5834C40.0002 18.6681 37.6205 16.2958 34.6955 16.2958Z" fill="#333333"/>
</svg>
