<svg width="35" height="35" viewBox="0 0 35 35" fill="none" xmlns="http://www.w3.org/2000/svg">
<g clip-path="url(#clip0)">
<path d="M35 17.5L31.0378 13.1009L31.6582 7.21177L25.8645 5.9852L22.9091 0.851227L17.5 3.26863L12.0909 0.851227L9.13556 5.9852L3.34186 7.21177L3.96216 13.1009L0 17.5L3.96209 21.899L3.34179 27.7882L9.13549 29.0147L12.0909 34.1487L17.5 31.7312L22.9091 34.1487L25.8644 29.0147L31.6581 27.7882L31.0378 21.899L35 17.5ZM24.8364 13.6682L16.0521 23.5097L9.94797 17.4056L11.3999 15.9537L15.9673 20.5212L23.3046 12.3009L24.8364 13.6682Z" fill="#333333"/>
</g>
<defs>
<clipPath id="clip0">
<rect width="35" height="35" fill="white"/>
</clipPath>
</defs>
</svg>
