<svg width="150" height="150" viewBox="0 0 150 150" fill="none" xmlns="http://www.w3.org/2000/svg">
<circle cx="75" cy="75" r="75" fill="#33ABDA"/>
<path d="M112.656 74.1489H111.875V57.9787C111.875 56.5687 110.826 55.4255 109.531 55.4255H105.625V47.766C105.625 46.3559 104.576 45.2128 103.281 45.2128H99.375V37.5532C99.375 36.1431 98.3256 35 97.0312 35H46.7188C40.257 35 35 40.7268 35 47.766V102.234C35 109.273 40.257 115 46.7188 115H109.531C110.826 115 111.875 113.857 111.875 112.447V96.2766H112.656C113.951 96.2766 115 95.1334 115 93.7234V76.7021C115 75.2921 113.951 74.1489 112.656 74.1489ZM102.5 60.5319H107.188V74.1489H102.5V60.5319ZM100.938 50.3191V55.4255H49.0625V50.3191H100.938ZM46.7188 40.1064H94.6875V45.2128H46.7188C45.4244 45.2128 44.375 46.3559 44.375 47.766V54.9864C41.647 53.9324 39.6875 51.0945 39.6875 47.766C39.6875 43.5425 42.8417 40.1064 46.7188 40.1064V40.1064ZM97.8125 109.894H46.7188C42.8417 109.894 39.6875 106.458 39.6875 102.234V57.9717C41.6475 59.5782 44.0827 60.5319 46.7188 60.5319H97.8125V74.1848C92.5764 74.6213 88.4375 79.3986 88.4375 85.2128C88.4375 91.0269 92.5764 95.8043 97.8125 96.2407V109.894ZM107.188 109.894H102.5V96.2766H107.188V109.894ZM110.312 91.1702H98.5938C95.5783 91.1702 93.125 88.4977 93.125 85.2128C93.125 81.9278 95.5783 79.2553 98.5938 79.2553H110.312V91.1702Z" fill="#F2F2F2"/>
<path d="M60.7812 74.1489C62.9352 74.1489 64.6875 76.0579 64.6875 78.4042C64.6875 79.8143 65.7369 80.9574 67.0312 80.9574C68.3256 80.9574 69.375 79.8143 69.375 78.4042C69.375 74.1273 66.7277 70.5139 63.125 69.3993V68.1915C63.125 66.7814 62.0756 65.6383 60.7812 65.6383C59.4869 65.6383 58.4375 66.7814 58.4375 68.1915V69.3993C54.8348 70.5137 52.1875 74.1273 52.1875 78.4042C52.1875 83.5663 56.0427 87.7659 60.7812 87.7659C62.9352 87.7659 64.6875 89.6749 64.6875 92.0213C64.6875 94.3677 62.9352 96.2766 60.7812 96.2766C58.6273 96.2766 56.875 94.3677 56.875 92.0213C56.875 90.6112 55.8256 89.4681 54.5312 89.4681C53.2369 89.4681 52.1875 90.6112 52.1875 92.0213C52.1875 96.2982 54.8348 99.9116 58.4375 101.026V102.234C58.4375 103.644 59.4869 104.787 60.7812 104.787C62.0756 104.787 63.125 103.644 63.125 102.234V101.026C66.7277 99.9118 69.375 96.2982 69.375 92.0213C69.375 86.8592 65.5198 82.6596 60.7812 82.6596C58.6273 82.6596 56.875 80.7506 56.875 78.4042C56.875 76.0579 58.6273 74.1489 60.7812 74.1489Z" fill="#F2F2F2"/>
</svg>
